<svg id="visual" viewBox="0 0 900 600" width="900" height="600" xmlns="http://www.w3.org/2000/svg" xmlns:xlink="http://www.w3.org/1999/xlink" version="1.1"><g stroke-width="1" stroke-linejoin="bevel"><path d="M490.9 300L490.9 225L409.1 300Z" fill="#777777" stroke="#777777"></path><path d="M409.1 225L409.1 300L490.9 225Z" fill="#252525" stroke="#252525"></path><path d="M490.9 225L409.1 150L409.1 225Z" fill="#929292" stroke="#929292"></path><path d="M409.1 375L490.9 375L490.9 300Z" fill="#252525" stroke="#252525"></path><path d="M490.9 150L409.1 150L490.9 225Z" fill="#252525" stroke="#252525"></path><path d="M409.1 300L409.1 375L490.9 300Z" fill="#929292" stroke="#929292"></path><path d="M490.9 300L572.7 225L490.9 225Z" fill="#9f9f9f" stroke="#9f9f9f"></path><path d="M490.9 225L572.7 225L490.9 150Z" fill="#6a6a6a" stroke="#6a6a6a"></path><path d="M572.7 300L572.7 225L490.9 300Z" fill="#6a6a6a" stroke="#6a6a6a"></path><path d="M327.3 225L409.1 300L409.1 225Z" fill="#525252" stroke="#525252"></path><path d="M327.3 225L327.3 300L409.1 300Z" fill="#525252" stroke="#525252"></path><path d="M409.1 300L327.3 375L409.1 375Z" fill="#3b3b3b" stroke="#3b3b3b"></path><path d="M327.3 150L327.3 225L409.1 225Z" fill="#9f9f9f" stroke="#9f9f9f"></path><path d="M490.9 375L572.7 300L490.9 300Z" fill="#777777" stroke="#777777"></path><path d="M327.3 300L327.3 375L409.1 300Z" fill="#9f9f9f" stroke="#9f9f9f"></path><path d="M572.7 225L572.7 150L490.9 150Z" fill="#6a6a6a" stroke="#6a6a6a"></path><path d="M490.9 375L572.7 375L572.7 300Z" fill="#9f9f9f" stroke="#9f9f9f"></path><path d="M409.1 150L327.3 150L409.1 225Z" fill="#525252" stroke="#525252"></path><path d="M409.1 450L490.9 450L490.9 375Z" fill="#929292" stroke="#929292"></path><path d="M490.9 375L490.9 450L572.7 375Z" fill="#777777" stroke="#777777"></path><path d="M409.1 450L490.9 375L409.1 375Z" fill="#303030" stroke="#303030"></path><path d="M572.7 150L490.9 75L490.9 150Z" fill="#464646" stroke="#464646"></path><path d="M490.9 150L409.1 75L409.1 150Z" fill="#252525" stroke="#252525"></path><path d="M409.1 150L327.3 75L327.3 150Z" fill="#252525" stroke="#252525"></path><path d="M327.3 450L409.1 450L409.1 375Z" fill="#525252" stroke="#525252"></path><path d="M490.9 75L409.1 75L490.9 150Z" fill="#303030" stroke="#303030"></path><path d="M654.5 300L572.7 225L572.7 300Z" fill="#252525" stroke="#252525"></path><path d="M654.5 300L654.5 225L572.7 225Z" fill="#9f9f9f" stroke="#9f9f9f"></path><path d="M572.7 225L654.5 150L572.7 150Z" fill="#252525" stroke="#252525"></path><path d="M654.5 375L654.5 300L572.7 300Z" fill="#929292" stroke="#929292"></path><path d="M245.5 225L245.5 300L327.3 300Z" fill="#303030" stroke="#303030"></path><path d="M327.3 300L245.5 375L327.3 375Z" fill="#777777" stroke="#777777"></path><path d="M245.5 225L327.3 300L327.3 225Z" fill="#6a6a6a" stroke="#6a6a6a"></path><path d="M245.5 150L245.5 225L327.3 225Z" fill="#252525" stroke="#252525"></path><path d="M409.1 75L327.3 75L409.1 150Z" fill="#252525" stroke="#252525"></path><path d="M327.3 150L245.5 150L327.3 225Z" fill="#464646" stroke="#464646"></path><path d="M245.5 450L327.3 450L327.3 375Z" fill="#464646" stroke="#464646"></path><path d="M327.3 375L327.3 450L409.1 375Z" fill="#929292" stroke="#929292"></path><path d="M490.9 450L572.7 450L572.7 375Z" fill="#252525" stroke="#252525"></path><path d="M572.7 375L654.5 375L572.7 300Z" fill="#252525" stroke="#252525"></path><path d="M572.7 150L572.7 75L490.9 75Z" fill="#6a6a6a" stroke="#6a6a6a"></path><path d="M654.5 75L572.7 75L572.7 150Z" fill="#5e5e5e" stroke="#5e5e5e"></path><path d="M654.5 450L654.5 375L572.7 375Z" fill="#525252" stroke="#525252"></path><path d="M654.5 225L654.5 150L572.7 225Z" fill="#303030" stroke="#303030"></path><path d="M245.5 300L245.5 375L327.3 300Z" fill="#303030" stroke="#303030"></path><path d="M245.5 75L245.5 150L327.3 150Z" fill="#848484" stroke="#848484"></path><path d="M490.9 0L409.1 0L409.1 75Z" fill="#777777" stroke="#777777"></path><path d="M409.1 75L327.3 0L327.3 75Z" fill="#777777" stroke="#777777"></path><path d="M490.9 0L409.1 75L490.9 75Z" fill="#6a6a6a" stroke="#6a6a6a"></path><path d="M327.3 525L409.1 525L409.1 450Z" fill="#5e5e5e" stroke="#5e5e5e"></path><path d="M409.1 450L490.9 525L490.9 450Z" fill="#252525" stroke="#252525"></path><path d="M490.9 450L490.9 525L572.7 450Z" fill="#848484" stroke="#848484"></path><path d="M409.1 525L490.9 525L409.1 450Z" fill="#9f9f9f" stroke="#9f9f9f"></path><path d="M572.7 75L490.9 0L490.9 75Z" fill="#929292" stroke="#929292"></path><path d="M572.7 450L654.5 450L572.7 375Z" fill="#464646" stroke="#464646"></path><path d="M654.5 525L654.5 450L572.7 450Z" fill="#929292" stroke="#929292"></path><path d="M654.5 150L654.5 75L572.7 150Z" fill="#252525" stroke="#252525"></path><path d="M572.7 75L572.7 0L490.9 0Z" fill="#777777" stroke="#777777"></path><path d="M245.5 0L245.5 75L327.3 75Z" fill="#929292" stroke="#929292"></path><path d="M327.3 75L245.5 75L327.3 150Z" fill="#777777" stroke="#777777"></path><path d="M245.5 375L245.5 450L327.3 375Z" fill="#5e5e5e" stroke="#5e5e5e"></path><path d="M327.3 450L327.3 525L409.1 450Z" fill="#848484" stroke="#848484"></path><path d="M736.4 300L736.4 225L654.5 225Z" fill="#303030" stroke="#303030"></path><path d="M654.5 225L736.4 150L654.5 150Z" fill="#9f9f9f" stroke="#9f9f9f"></path><path d="M654.5 150L736.4 75L654.5 75Z" fill="#303030" stroke="#303030"></path><path d="M736.4 300L654.5 225L654.5 300Z" fill="#6a6a6a" stroke="#6a6a6a"></path><path d="M736.4 300L654.5 300L736.4 375Z" fill="#5e5e5e" stroke="#5e5e5e"></path><path d="M736.4 375L654.5 300L654.5 375Z" fill="#5e5e5e" stroke="#5e5e5e"></path><path d="M245.5 300L163.6 375L245.5 375Z" fill="#6a6a6a" stroke="#6a6a6a"></path><path d="M245.5 375L163.6 450L245.5 450Z" fill="#848484" stroke="#848484"></path><path d="M163.6 225L163.6 300L245.5 300Z" fill="#848484" stroke="#848484"></path><path d="M163.6 225L245.5 300L245.5 225Z" fill="#777777" stroke="#777777"></path><path d="M163.6 225L245.5 225L163.6 150Z" fill="#3b3b3b" stroke="#3b3b3b"></path><path d="M163.6 150L245.5 225L245.5 150Z" fill="#464646" stroke="#464646"></path><path d="M490.9 525L572.7 525L572.7 450Z" fill="#464646" stroke="#464646"></path><path d="M245.5 525L327.3 525L327.3 450Z" fill="#525252" stroke="#525252"></path><path d="M409.1 0L327.3 0L409.1 75Z" fill="#777777" stroke="#777777"></path><path d="M654.5 0L572.7 0L572.7 75Z" fill="#3b3b3b" stroke="#3b3b3b"></path><path d="M736.4 450L736.4 375L654.5 375Z" fill="#9f9f9f" stroke="#9f9f9f"></path><path d="M736.4 225L736.4 150L654.5 225Z" fill="#252525" stroke="#252525"></path><path d="M163.6 300L163.6 375L245.5 300Z" fill="#929292" stroke="#929292"></path><path d="M163.6 75L163.6 150L245.5 150Z" fill="#848484" stroke="#848484"></path><path d="M572.7 525L654.5 525L572.7 450Z" fill="#777777" stroke="#777777"></path><path d="M654.5 450L736.4 450L654.5 375Z" fill="#464646" stroke="#464646"></path><path d="M654.5 75L654.5 0L572.7 75Z" fill="#929292" stroke="#929292"></path><path d="M736.4 0L654.5 0L654.5 75Z" fill="#5e5e5e" stroke="#5e5e5e"></path><path d="M327.3 0L245.5 0L327.3 75Z" fill="#5e5e5e" stroke="#5e5e5e"></path><path d="M245.5 75L163.6 75L245.5 150Z" fill="#848484" stroke="#848484"></path><path d="M163.6 525L245.5 525L245.5 450Z" fill="#777777" stroke="#777777"></path><path d="M245.5 450L245.5 525L327.3 450Z" fill="#303030" stroke="#303030"></path><path d="M327.3 600L409.1 600L409.1 525Z" fill="#6a6a6a" stroke="#6a6a6a"></path><path d="M409.1 525L490.9 600L490.9 525Z" fill="#303030" stroke="#303030"></path><path d="M490.9 525L490.9 600L572.7 525Z" fill="#6a6a6a" stroke="#6a6a6a"></path><path d="M572.7 525L654.5 600L654.5 525Z" fill="#252525" stroke="#252525"></path><path d="M327.3 600L409.1 525L327.3 525Z" fill="#525252" stroke="#525252"></path><path d="M409.1 600L490.9 600L409.1 525Z" fill="#525252" stroke="#525252"></path><path d="M736.4 150L736.4 75L654.5 150Z" fill="#303030" stroke="#303030"></path><path d="M736.4 525L736.4 450L654.5 450Z" fill="#3b3b3b" stroke="#3b3b3b"></path><path d="M163.6 375L163.6 450L245.5 375Z" fill="#525252" stroke="#525252"></path><path d="M163.6 0L163.6 75L245.5 75Z" fill="#777777" stroke="#777777"></path><path d="M490.9 600L572.7 600L572.7 525Z" fill="#6a6a6a" stroke="#6a6a6a"></path><path d="M245.5 600L327.3 600L327.3 525Z" fill="#777777" stroke="#777777"></path><path d="M736.4 300L818.2 225L736.4 225Z" fill="#6a6a6a" stroke="#6a6a6a"></path><path d="M736.4 225L818.2 225L736.4 150Z" fill="#848484" stroke="#848484"></path><path d="M736.4 150L818.2 150L736.4 75Z" fill="#5e5e5e" stroke="#5e5e5e"></path><path d="M818.2 300L818.2 225L736.4 300Z" fill="#464646" stroke="#464646"></path><path d="M818.2 300L736.4 300L736.4 375Z" fill="#777777" stroke="#777777"></path><path d="M818.2 375L818.2 300L736.4 375Z" fill="#777777" stroke="#777777"></path><path d="M163.6 300L81.8 375L163.6 375Z" fill="#3b3b3b" stroke="#3b3b3b"></path><path d="M163.6 375L81.8 450L163.6 450Z" fill="#3b3b3b" stroke="#3b3b3b"></path><path d="M81.8 225L81.8 300L163.6 300Z" fill="#777777" stroke="#777777"></path><path d="M81.8 225L163.6 300L163.6 225Z" fill="#6a6a6a" stroke="#6a6a6a"></path><path d="M81.8 225L163.6 225L81.8 150Z" fill="#252525" stroke="#252525"></path><path d="M81.8 150L163.6 225L163.6 150Z" fill="#848484" stroke="#848484"></path><path d="M818.2 450L818.2 375L736.4 450Z" fill="#464646" stroke="#464646"></path><path d="M736.4 450L818.2 375L736.4 375Z" fill="#6a6a6a" stroke="#6a6a6a"></path><path d="M736.4 525L654.5 450L654.5 525Z" fill="#464646" stroke="#464646"></path><path d="M818.2 225L818.2 150L736.4 150Z" fill="#252525" stroke="#252525"></path><path d="M736.4 75L736.4 0L654.5 75Z" fill="#303030" stroke="#303030"></path><path d="M81.8 75L81.8 150L163.6 150Z" fill="#6a6a6a" stroke="#6a6a6a"></path><path d="M81.8 300L81.8 375L163.6 300Z" fill="#3b3b3b" stroke="#3b3b3b"></path><path d="M818.2 75L736.4 0L736.4 75Z" fill="#252525" stroke="#252525"></path><path d="M736.4 600L736.4 525L654.5 525Z" fill="#303030" stroke="#303030"></path><path d="M163.6 450L163.6 525L245.5 450Z" fill="#464646" stroke="#464646"></path><path d="M245.5 525L245.5 600L327.3 525Z" fill="#777777" stroke="#777777"></path><path d="M81.8 525L163.6 525L163.6 450Z" fill="#252525" stroke="#252525"></path><path d="M245.5 0L163.6 0L245.5 75Z" fill="#929292" stroke="#929292"></path><path d="M163.6 75L81.8 75L163.6 150Z" fill="#929292" stroke="#929292"></path><path d="M572.7 600L654.5 600L572.7 525Z" fill="#777777" stroke="#777777"></path><path d="M163.6 600L245.5 600L245.5 525Z" fill="#9f9f9f" stroke="#9f9f9f"></path><path d="M818.2 150L818.2 75L736.4 75Z" fill="#3b3b3b" stroke="#3b3b3b"></path><path d="M818.2 525L818.2 450L736.4 525Z" fill="#525252" stroke="#525252"></path><path d="M736.4 525L818.2 450L736.4 450Z" fill="#303030" stroke="#303030"></path><path d="M81.8 375L81.8 450L163.6 375Z" fill="#929292" stroke="#929292"></path><path d="M81.8 0L81.8 75L163.6 75Z" fill="#464646" stroke="#464646"></path><path d="M654.5 600L736.4 600L654.5 525Z" fill="#9f9f9f" stroke="#9f9f9f"></path><path d="M81.8 600L163.6 600L163.6 525Z" fill="#9f9f9f" stroke="#9f9f9f"></path><path d="M163.6 525L163.6 600L245.5 525Z" fill="#5e5e5e" stroke="#5e5e5e"></path><path d="M818.2 300L900 225L818.2 225Z" fill="#3b3b3b" stroke="#3b3b3b"></path><path d="M818.2 225L900 225L818.2 150Z" fill="#303030" stroke="#303030"></path><path d="M818.2 150L900 150L818.2 75Z" fill="#6a6a6a" stroke="#6a6a6a"></path><path d="M900 300L900 225L818.2 300Z" fill="#9f9f9f" stroke="#9f9f9f"></path><path d="M900 300L818.2 300L818.2 375Z" fill="#525252" stroke="#525252"></path><path d="M81.8 375L0 450L81.8 450Z" fill="#5e5e5e" stroke="#5e5e5e"></path><path d="M81.8 300L0 375L81.8 375Z" fill="#303030" stroke="#303030"></path><path d="M0 225L0 300L81.8 300Z" fill="#929292" stroke="#929292"></path><path d="M0 225L81.8 300L81.8 225Z" fill="#464646" stroke="#464646"></path><path d="M0 225L81.8 225L0 150Z" fill="#3b3b3b" stroke="#3b3b3b"></path><path d="M0 150L81.8 225L81.8 150Z" fill="#5e5e5e" stroke="#5e5e5e"></path><path d="M900 375L900 300L818.2 375Z" fill="#303030" stroke="#303030"></path><path d="M736.4 600L818.2 525L736.4 525Z" fill="#5e5e5e" stroke="#5e5e5e"></path><path d="M818.2 450L900 375L818.2 375Z" fill="#777777" stroke="#777777"></path><path d="M900 75L818.2 0L818.2 75Z" fill="#777777" stroke="#777777"></path><path d="M818.2 75L818.2 0L736.4 0Z" fill="#6a6a6a" stroke="#6a6a6a"></path><path d="M81.8 450L81.8 525L163.6 450Z" fill="#3b3b3b" stroke="#3b3b3b"></path><path d="M0 525L81.8 525L81.8 450Z" fill="#303030" stroke="#303030"></path><path d="M163.6 0L81.8 0L163.6 75Z" fill="#848484" stroke="#848484"></path><path d="M0 75L0 150L81.8 150Z" fill="#5e5e5e" stroke="#5e5e5e"></path><path d="M0 75L81.8 150L81.8 75Z" fill="#252525" stroke="#252525"></path><path d="M900 225L900 150L818.2 150Z" fill="#929292" stroke="#929292"></path><path d="M900 450L900 375L818.2 450Z" fill="#464646" stroke="#464646"></path><path d="M0 300L0 375L81.8 300Z" fill="#9f9f9f" stroke="#9f9f9f"></path><path d="M818.2 525L900 450L818.2 450Z" fill="#525252" stroke="#525252"></path><path d="M0 0L0 75L81.8 75Z" fill="#777777" stroke="#777777"></path><path d="M900 150L900 75L818.2 75Z" fill="#9f9f9f" stroke="#9f9f9f"></path><path d="M0 375L0 450L81.8 375Z" fill="#777777" stroke="#777777"></path><path d="M736.4 600L818.2 600L818.2 525Z" fill="#848484" stroke="#848484"></path><path d="M818.2 525L900 525L900 450Z" fill="#3b3b3b" stroke="#3b3b3b"></path><path d="M0 600L81.8 600L81.8 525Z" fill="#848484" stroke="#848484"></path><path d="M81.8 525L81.8 600L163.6 525Z" fill="#303030" stroke="#303030"></path><path d="M81.8 0L0 0L81.8 75Z" fill="#525252" stroke="#525252"></path><path d="M818.2 600L900 525L818.2 525Z" fill="#6a6a6a" stroke="#6a6a6a"></path><path d="M0 450L0 525L81.8 450Z" fill="#6a6a6a" stroke="#6a6a6a"></path><path d="M900 75L900 0L818.2 0Z" fill="#464646" stroke="#464646"></path><path d="M0 525L0 600L81.8 525Z" fill="#5e5e5e" stroke="#5e5e5e"></path><path d="M818.2 600L900 600L900 525Z" fill="#5e5e5e" stroke="#5e5e5e"></path></g></svg>